<svg width="195" height="129" viewBox="0 0 195 129" fill="none" xmlns="http://www.w3.org/2000/svg">
<g clip-path="url(#clip0_1824_9713)">
<path d="M98.7854 36.2564C97.0467 33.3915 94.9863 30.3326 91.7597 29.3971C88.0231 28.3138 84.1846 30.4659 80.9288 32.5896C71.1917 38.9408 61.8148 45.8238 52.8409 53.2069L52.8508 53.3181C59.8373 52.8381 66.8238 52.3581 73.8103 51.8781C78.858 51.5313 84.0792 51.1367 88.54 48.7577C90.2328 47.855 91.8828 46.6491 93.801 46.5651C96.1841 46.4607 98.262 48.1188 99.895 49.8512C109.554 60.0987 112.35 75.7697 123.187 84.7729C116.353 67.9835 108.194 51.7604 98.7854 36.2564Z" fill="#F2F2F2"/>
<path d="M158.161 123.175C157.093 121.831 156.656 121.517 155.603 120.16C147.023 109.106 138.959 97.6778 131.411 85.8765C126.284 77.8614 121.411 69.6925 116.792 61.3696C114.593 57.4128 112.454 53.4249 110.376 49.406C108.763 46.2899 107.187 43.1551 105.646 40.0016C105.205 39.1009 104.777 38.1961 104.351 37.2892C103.347 35.1566 102.362 33.0136 101.304 30.9099C100.099 28.5122 98.6317 25.9986 96.4182 24.3877C95.4109 23.6245 94.2063 23.1627 92.9453 23.0564C91.1434 22.9404 89.4807 23.6817 87.9179 24.4912C76.4829 30.4316 65.7776 37.8793 56.0947 46.3541C46.387 54.8478 37.7099 64.4437 30.2404 74.9461C30.0118 75.2712 29.4714 74.9606 29.7021 74.6335C30.6104 73.3539 31.5366 72.0881 32.4808 70.8361C44.2218 55.2793 58.6181 41.9013 75.0115 31.3136C77.7695 29.533 80.5794 27.8358 83.4412 26.2222C84.8835 25.4085 86.3321 24.6051 87.8056 23.8514C89.2501 23.1123 90.7839 22.4476 92.434 22.4228C98.0497 22.3358 100.957 28.6716 102.955 32.9349C103.582 34.2766 104.217 35.6142 104.86 36.9476C107.29 42.01 109.813 47.0263 112.43 51.9962C114.044 55.0648 115.695 58.1154 117.38 61.148C122.626 70.5917 128.201 79.8443 134.106 88.9057C141.929 100.909 149.69 111.512 158.601 122.736C158.847 123.047 158.408 123.49 158.161 123.175Z" fill="#E4E4E4"/>
<path d="M55.5397 43.2256C55.2135 42.8633 54.8893 42.5009 54.5609 42.1386C51.9713 39.2854 49.1927 36.4653 45.6366 34.8296C43.941 34.025 42.0901 33.5976 40.2121 33.5769C38.271 33.5831 36.3736 34.0904 34.58 34.8006C33.732 35.1381 32.9027 35.5211 32.086 35.929C31.1528 36.397 30.2362 36.896 29.3239 37.3991C27.6113 38.3433 25.921 39.3289 24.2528 40.3558C20.9337 42.3995 17.7185 44.5991 14.6073 46.9546C12.9945 48.1763 11.415 49.4379 9.86871 50.7396C8.43053 51.9488 7.02144 53.1904 5.64144 54.4645C5.34633 54.7357 4.9057 54.2968 5.20081 54.0255C5.56452 53.688 5.93238 53.3526 6.30025 53.0213C7.33941 52.0854 8.39521 51.1675 9.46765 50.2675C11.4233 48.6235 13.4296 47.043 15.4865 45.526C18.685 43.1656 21.9937 40.9653 25.4125 38.9251C27.1209 37.9064 28.8528 36.9305 30.6082 35.9974C31.1383 35.7158 31.6745 35.4404 32.2169 35.1795C33.4477 34.561 34.7265 34.0424 36.041 33.6287C37.903 33.0286 39.873 32.8358 41.8167 33.0634C43.6933 33.3354 45.5013 33.9585 47.1455 34.9C50.637 36.8442 53.345 39.8506 55.9804 42.7846C56.2465 43.0827 55.8079 43.5238 55.5397 43.2256Z" fill="#E4E4E4"/>
<path d="M127.08 72.7914L135.447 69.7428L139.601 68.2291C140.954 67.7361 142.304 67.1749 143.702 66.8219C144.918 66.476 146.208 66.4924 147.414 66.869C148.49 67.2657 149.474 67.8737 150.309 68.6571C151.163 69.4397 151.956 70.2842 152.684 71.1837C153.589 72.2665 154.48 73.3607 155.375 74.4512C159.069 78.952 162.739 83.4723 166.384 88.0122C170.03 92.552 173.651 97.1111 177.248 101.689C180.854 106.279 184.435 110.888 187.991 115.516C188.427 116.083 188.862 116.65 189.297 117.217C189.537 117.531 190.079 117.222 189.835 116.904C186.253 112.229 182.646 107.574 179.013 102.938C175.372 98.2905 171.706 93.6629 168.014 89.0551C164.323 84.4473 160.606 79.8595 156.865 75.2917C155.933 74.1537 154.999 73.017 154.064 71.8815C153.275 70.9237 152.495 69.9555 151.63 69.064C150.042 67.4276 148.058 65.9815 145.682 65.9423C144.286 65.9192 142.934 66.3607 141.637 66.8283C140.238 67.3324 138.843 67.846 137.446 68.355L129.021 71.425L126.915 72.1925C126.541 72.3287 126.702 72.9292 127.08 72.7914Z" fill="#E4E4E4"/>
<path d="M44.5355 38.4182C40.2838 36.2412 34.8389 36.6676 30.9318 39.3874C38.3842 40.6683 45.7551 42.3822 53.0067 44.5203C49.9954 42.7622 47.6398 40.0077 44.5355 38.4182Z" fill="#F2F2F2"/>
<path d="M30.8899 39.3809L30.0714 40.0437C30.3483 39.8117 30.6361 39.5942 30.9318 39.3884C30.9178 39.386 30.9039 39.3833 30.8899 39.3809Z" fill="#F2F2F2"/>
<path d="M149.994 72.8213C149.171 71.8225 148.28 70.7768 147.049 70.3711L145.898 70.4163C154.653 85.8288 166.478 99.2962 180.646 109.992C170.429 97.6016 160.212 85.2115 149.994 72.8213Z" fill="#F2F2F2"/>
<path d="M78.4754 64.582C79.0077 66.5085 80.2067 68.1853 81.8605 69.3158C82.4998 69.7495 83.2563 70.1655 83.475 70.9046C83.5901 71.3758 83.5191 71.873 83.2769 72.2936C83.0351 72.7089 82.741 73.0916 82.4015 73.4323L82.3706 73.5479C80.784 72.6112 79.2745 71.4263 78.3981 69.8097C77.5217 68.193 77.3993 66.0742 78.4754 64.582Z" fill="#F2F2F2"/>
<path d="M131.299 110.432C131.831 112.358 133.03 114.035 134.684 115.165C135.323 115.599 136.08 116.015 136.298 116.754C136.413 117.225 136.342 117.723 136.1 118.143C135.858 118.558 135.564 118.941 135.225 119.282L135.194 119.398C133.607 118.461 132.098 117.276 131.221 115.659C130.345 114.043 130.223 111.924 131.299 110.432Z" fill="#F2F2F2"/>
<path d="M25.8788 107.27C26.4111 109.196 27.6101 110.873 29.2638 112.003C29.9032 112.437 30.6596 112.853 30.8784 113.592C30.9934 114.063 30.9225 114.561 30.6803 114.981C30.4385 115.396 30.1443 115.779 29.8049 116.12L29.7739 116.235C28.1873 115.299 26.6779 114.114 25.8015 112.497C24.9251 110.881 24.8027 108.762 25.8788 107.27Z" fill="#F2F2F2"/>
<path d="M147.191 23.0378C153.577 23.0378 158.753 17.8806 158.753 11.5189C158.753 5.15719 153.577 0 147.191 0C140.805 0 135.629 5.15719 135.629 11.5189C135.629 17.8806 140.805 23.0378 147.191 23.0378Z" fill="#BF2E1B"/>
<path d="M168.056 2.68101C162.453 1.92642 156.055 4.94383 154.603 10.3882C154.237 9.42017 153.572 8.59315 152.703 8.02658C151.834 7.46002 150.807 7.18325 149.77 7.23626C148.733 7.28927 147.74 7.66931 146.934 8.32149C146.128 8.97367 145.551 9.86421 145.287 10.8645L145.928 11.3222C157.936 13.9093 170.367 13.8533 182.351 11.1581C178.453 7.07707 173.66 3.43558 168.056 2.68101Z" fill="#F0F0F0"/>
<path d="M144.025 18.0404C138.421 17.2858 132.024 20.3032 130.572 25.7476C130.206 24.7795 129.54 23.9525 128.672 23.386C127.803 22.8194 126.776 22.5426 125.739 22.5956C124.702 22.6486 123.709 23.0287 122.903 23.6809C122.097 24.333 121.52 25.2236 121.255 26.2238L121.897 26.6816C133.905 29.2686 146.336 29.2127 158.32 26.5175C154.422 22.4364 149.629 18.795 144.025 18.0404Z" fill="#F0F0F0"/>
<path d="M192.932 20.9446C192.909 20.9446 192.886 20.941 192.864 20.934C132.92 2.04791 80.0886 4.5176 46.3235 9.9151C41.7284 10.6494 37.121 11.4975 32.6293 12.436C31.4826 12.6753 30.2929 12.9318 29.0934 13.1989C27.6609 13.5167 26.2474 13.8441 24.892 14.1714C24.3066 14.3095 23.7327 14.4486 23.1702 14.5889C22.3181 14.7985 21.4536 15.0168 20.5268 15.2568C19.4913 15.5228 18.4391 15.8018 17.3988 16.0861C17.395 16.0875 17.3912 16.0886 17.3872 16.0894L17.3873 16.0897C16.2124 16.4093 15.0436 16.7381 13.9134 17.0666C13.3017 17.2426 12.711 17.4162 12.1452 17.5875C12.082 17.605 12.026 17.6217 11.9692 17.6389L11.8477 17.6758C11.7773 17.6972 11.7077 17.7181 11.6382 17.738L11.6338 17.7393L11.6339 17.7395L11.4499 17.7964C11.2305 17.8626 11.0164 17.9272 10.8059 17.9916C5.24132 19.7006 2.18229 20.9164 2.15207 20.9283C2.12443 20.9393 2.09489 20.9448 2.06512 20.9445C2.03535 20.9441 2.00593 20.9379 1.97856 20.9263C1.95119 20.9146 1.92639 20.8977 1.90558 20.8765C1.88477 20.8553 1.86835 20.8302 1.85728 20.8027C1.8462 20.7751 1.84068 20.7457 1.84102 20.716C1.84136 20.6864 1.84756 20.6571 1.85927 20.6298C1.87098 20.6025 1.88796 20.5778 1.90925 20.5571C1.93055 20.5364 1.95573 20.52 1.98336 20.509C2.0138 20.4971 5.08778 19.2751 10.6726 17.5598C10.8839 17.4951 11.0986 17.4305 11.3186 17.3641L11.4896 17.3112C11.4954 17.309 11.5013 17.3072 11.5073 17.3054C11.5765 17.2858 11.6455 17.2649 11.7157 17.2437L11.8375 17.2069C11.8981 17.1885 11.9579 17.1705 12.0191 17.1537C12.581 16.9834 13.1737 16.8094 13.787 16.6327C14.9177 16.3041 16.0875 15.9752 17.2633 15.6552C17.267 15.6538 17.2708 15.653 17.2744 15.6519C18.3183 15.3667 19.3744 15.0863 20.4133 14.8194C21.3415 14.5792 22.2077 14.3604 23.0612 14.1504C23.626 14.0104 24.2011 13.8709 24.7863 13.732C26.1432 13.4043 27.5596 13.0765 28.9947 12.758C30.1961 12.4907 31.3878 12.2335 32.5364 11.994C37.035 11.0539 41.6496 10.2045 46.2516 9.46913C80.0651 4.0639 132.973 1.59023 193.001 20.5034C193.052 20.5197 193.096 20.5538 193.125 20.5996C193.153 20.6454 193.165 20.6998 193.156 20.7531C193.148 20.8064 193.121 20.855 193.08 20.8901C193.039 20.9253 192.986 20.9446 192.932 20.9446Z" fill="#CCCCCC"/>
<path d="M59.6221 94.8252C59.5436 94.5965 59.4115 94.3897 59.2367 94.2221C59.1722 94.1625 59.1024 94.1088 59.0281 94.0617C58.4364 93.6687 57.5522 93.5807 56.99 94.0617C56.9334 94.1107 56.881 94.1643 56.8336 94.2221C56.6658 94.4276 56.4935 94.6287 56.3167 94.8252C56.0265 95.1549 55.7295 95.4734 55.4189 95.7828C55.3305 95.8686 55.2421 95.9567 55.1514 96.0426C55.0992 96.0945 55.0471 96.1442 54.995 96.1939C54.7955 96.3836 54.5914 96.5665 54.3851 96.7472C54.2763 96.8444 54.1675 96.9392 54.0564 97.0318C53.8909 97.1696 53.7254 97.3074 53.5576 97.4406C53.5417 97.4519 53.5259 97.4632 53.51 97.4768C53.5055 97.479 53.5032 97.4835 53.4987 97.4858C53.4964 97.4858 53.4941 97.4858 53.4919 97.4903C53.4857 97.4927 53.4803 97.4966 53.476 97.5016C53.4261 97.5355 53.3921 97.5581 53.3672 97.5784C53.3763 97.5739 53.3853 97.5671 53.3944 97.5626C53.3536 97.5942 53.3105 97.6258 53.2697 97.6575C52.873 97.9488 52.4671 98.2289 52.0523 98.4909C51.0258 99.1454 49.9477 99.7157 48.8285 100.196C48.7536 100.225 48.6766 100.257 48.5995 100.286C45.6692 101.483 42.4905 101.949 39.3384 101.646C39.0165 101.621 38.6945 101.587 38.3726 101.545C38.0008 101.49 37.6313 101.425 37.264 101.35C35.8658 101.072 34.4977 100.661 33.1787 100.122C31.5287 99.3689 29.9595 98.4517 28.4949 97.3842C28.2682 97.2238 28.0392 97.0634 27.8102 96.9076C28.0709 96.2707 28.3271 95.6337 28.5765 94.9923C28.7012 94.6829 28.8213 94.3734 28.9392 94.0617C29.8665 91.6608 30.737 89.2374 31.5713 86.8048C32.4147 84.3407 33.2104 81.8622 33.9586 79.3695C34.0357 79.1165 34.1105 78.8636 34.183 78.6106C34.5752 77.2938 34.9516 75.9741 35.312 74.6513C35.346 74.5225 35.3823 74.3961 35.4141 74.2673C35.5183 73.8879 35.6204 73.5084 35.7201 73.129C35.9468 72.2729 35.4345 71.2498 34.5322 71.0443C34.0977 70.9333 33.637 70.9947 33.2471 71.2154C32.8572 71.4362 32.5685 71.7991 32.4419 72.2278C32.3444 72.5937 32.2469 72.9573 32.1472 73.3232C31.6688 75.0917 31.1655 76.8542 30.6373 78.6106C30.5602 78.8636 30.4831 79.1165 30.406 79.3695C29.2408 83.1956 27.9614 86.9833 26.5678 90.7326C26.4001 91.1865 26.23 91.639 26.0577 92.09C25.9739 92.3113 25.89 92.5327 25.8038 92.754C25.6383 93.1899 25.4683 93.6258 25.2983 94.0617C25.2008 94.317 25.101 94.5722 25.0013 94.8252C24.9355 94.9855 24.8721 95.1459 24.8086 95.304C24.1622 95.0728 23.4925 94.9122 22.8113 94.8252L22.7024 94.8116C22.1743 94.7483 21.6402 94.7529 21.1132 94.8252C20.3245 94.9168 19.5656 95.18 18.8903 95.5961C18.2149 96.0121 17.6395 96.5709 17.2047 97.2328C16.1233 98.9291 16.1369 101.355 17.6536 102.796C19.2157 104.28 21.5802 104.268 23.4189 103.34C24.3932 102.815 25.2148 102.048 25.8038 101.113C26.0295 100.774 26.2369 100.424 26.425 100.063C26.4726 100.094 26.5202 100.126 26.5678 100.16C26.7492 100.286 26.9306 100.415 27.1097 100.542C28.1532 101.295 29.2529 101.968 30.3992 102.554C32.864 103.775 35.5172 104.574 38.2479 104.919C38.3091 104.926 38.3681 104.935 38.4293 104.941C38.7308 104.98 39.0346 105.009 39.3384 105.034C43.6962 105.361 48.0594 104.473 51.9389 102.468C52.2676 102.299 52.5933 102.121 52.916 101.935C53.4171 101.646 53.9067 101.339 54.3851 101.014C54.6458 100.838 54.8997 100.659 55.1514 100.472C56.2511 99.6648 57.2761 98.7615 58.2142 97.7726C58.5702 97.4 58.911 97.0152 59.2367 96.6185C59.5447 96.2939 59.7222 95.8679 59.7355 95.4214C59.7337 95.2175 59.6953 95.0156 59.6221 94.8252ZM22.0813 100.205C22.1289 100.171 22.1765 100.135 22.2218 100.099C22.2082 100.133 22.1425 100.171 22.0813 100.205ZM22.809 99.4756C22.7569 99.5344 22.7092 99.5931 22.6571 99.6518C22.4985 99.8287 22.3281 99.9947 22.147 100.149C22.1221 100.171 22.0949 100.194 22.0677 100.214C22.0674 100.214 22.0671 100.214 22.0668 100.214C22.0665 100.214 22.0663 100.215 22.066 100.215C22.0658 100.215 22.0657 100.215 22.0656 100.216C22.0654 100.216 22.0654 100.216 22.0654 100.216C22.0326 100.231 22.0008 100.248 21.9702 100.266C21.8727 100.325 21.7729 100.379 21.6709 100.429C21.4712 100.502 21.2657 100.559 21.0565 100.598C20.8958 100.61 20.7345 100.611 20.5736 100.603H20.5691C20.4581 100.578 20.3484 100.548 20.2404 100.512C20.186 100.485 20.1338 100.454 20.0817 100.422C20.0613 100.404 20.0431 100.386 20.0318 100.375C20.0097 100.354 19.9892 100.333 19.9706 100.309C19.9706 100.309 19.9706 100.308 19.9704 100.308C19.9703 100.308 19.9702 100.308 19.97 100.307C19.9698 100.307 19.9695 100.307 19.9692 100.307C19.9689 100.307 19.9686 100.307 19.9683 100.307C19.9434 100.262 19.9162 100.216 19.8913 100.171C19.89 100.17 19.8892 100.169 19.889 100.167C19.8709 100.11 19.855 100.052 19.8414 99.9929C19.8365 99.8897 19.8372 99.7865 19.8436 99.6834C19.8741 99.5391 19.915 99.3972 19.9661 99.2588C20.012 99.1607 20.0642 99.0656 20.1225 98.9742C20.127 98.9652 20.1497 98.929 20.1747 98.8884C20.1769 98.8861 20.1769 98.8861 20.1769 98.8839C20.2109 98.8455 20.2449 98.8048 20.2812 98.7687C20.3424 98.7009 20.4082 98.6422 20.4739 98.5812C20.6018 98.4979 20.7342 98.4217 20.8707 98.3531C21.0871 98.2765 21.3092 98.2169 21.5349 98.1747C21.8678 98.1483 22.2024 98.1513 22.5347 98.1837C22.8495 98.2381 23.1601 98.3143 23.4642 98.4118C23.2799 98.7682 23.07 99.1109 22.8362 99.4372C22.8271 99.4508 22.8181 99.4643 22.809 99.4756ZM20.288 98.7325C20.268 98.7645 20.2444 98.794 20.2177 98.8206C20.2357 98.7873 20.2595 98.7575 20.288 98.7325Z" fill="white"/>
<path d="M52.8072 71.7584C52.7868 72.4676 52.7664 73.1768 52.7459 73.886C52.7029 75.4603 52.6583 77.0353 52.6122 78.611C52.5646 80.384 52.5147 82.1563 52.4626 83.9278C52.4376 84.8425 52.4119 85.7573 52.3855 86.672C52.3152 89.1362 52.2457 91.5995 52.1769 94.0622C52.1701 94.3174 52.161 94.5704 52.1542 94.8256C52.1202 96.0475 52.0862 97.2694 52.0522 98.4913C52.0137 99.8171 51.9759 101.143 51.9389 102.469C51.9117 103.463 51.8837 104.457 51.855 105.452C51.6509 112.664 51.4469 119.876 51.2429 127.088C51.2342 127.534 51.0523 127.96 50.7353 128.276C50.4183 128.592 49.9908 128.773 49.5425 128.782C49.0927 128.778 48.6623 128.598 48.3442 128.281C48.0261 127.964 47.8458 127.536 47.8422 127.088C47.9556 123.031 48.0704 118.975 48.1868 114.918C48.2888 111.25 48.3924 107.582 48.4974 103.914C48.5314 102.706 48.5654 101.497 48.5994 100.287C48.6516 98.4665 48.703 96.646 48.7536 94.8256C48.7604 94.5704 48.7695 94.3174 48.7763 94.0622C48.7808 93.8386 48.7876 93.6172 48.7944 93.3936C48.8942 89.8589 48.9939 86.3234 49.0937 82.7872C49.1345 81.3959 49.1738 80.0038 49.2115 78.611C49.2569 77.0232 49.3022 75.4362 49.3476 73.8499C49.368 73.152 49.3861 72.4563 49.4065 71.7584C49.4151 71.3118 49.597 70.8859 49.9141 70.5701C50.2311 70.2543 50.6586 70.073 51.1068 70.0645C51.5567 70.0681 51.987 70.2477 52.3051 70.5646C52.6232 70.8815 52.8035 71.3103 52.8072 71.7584Z" fill="white"/>
<path d="M146.082 72.2278C144.299 78.9538 142.168 85.5835 139.697 92.0903C139.016 93.885 138.318 95.6763 137.573 97.4458L137.744 97.0412C137.412 97.8841 136.987 98.6879 136.477 99.438C136.442 99.4864 136.407 99.5343 136.371 99.5817C136.547 99.3573 136.581 99.313 136.472 99.4487C136.414 99.5166 136.357 99.5847 136.298 99.6509C136.139 99.8279 135.969 99.9942 135.788 100.149C135.742 100.187 135.696 100.225 135.649 100.262L135.862 100.098C135.837 100.156 135.664 100.233 135.61 100.266C135.435 100.371 135.253 100.463 135.065 100.541L135.471 100.37C135.162 100.494 134.84 100.582 134.512 100.632L134.964 100.572C134.641 100.616 134.313 100.62 133.989 100.582L134.441 100.643C134.176 100.606 133.917 100.537 133.669 100.435L134.075 100.606C133.943 100.549 133.816 100.481 133.695 100.404C133.633 100.364 133.444 100.221 133.692 100.409C133.948 100.605 133.725 100.426 133.672 100.374C133.628 100.331 133.588 100.284 133.545 100.24C133.345 100.036 133.771 100.591 133.635 100.352C133.562 100.233 133.496 100.109 133.436 99.9828L133.607 100.387C133.529 100.195 133.474 99.9938 133.442 99.7886L133.503 100.239C133.47 99.9836 133.47 99.7252 133.502 99.4698L133.441 99.9202C133.483 99.6351 133.559 99.3561 133.667 99.089L133.495 99.4936C133.571 99.314 133.66 99.1404 133.762 98.9745C133.81 98.8887 133.865 98.8077 133.928 98.7325C133.939 98.7361 133.64 99.0742 133.799 98.9035C133.84 98.8588 133.879 98.8118 133.921 98.7675C133.988 98.6966 134.06 98.6318 134.131 98.5647C134.367 98.3401 133.799 98.7829 134.072 98.6051C134.27 98.4754 134.479 98.3622 134.696 98.2665L134.29 98.4373C134.653 98.2888 135.033 98.1871 135.422 98.1347L134.97 98.1952C135.457 98.1394 135.949 98.1452 136.435 98.2125L135.983 98.1519C136.598 98.2448 137.198 98.4132 137.772 98.6533L137.366 98.4826C138.588 99.0052 139.67 99.7811 140.75 100.542C141.793 101.295 142.893 101.967 144.039 102.554C146.504 103.775 149.157 104.574 151.888 104.919C155.804 105.397 159.779 104.888 163.446 103.437C167.113 101.987 170.357 99.6423 172.878 96.6184C173.185 96.2933 173.363 95.8671 173.376 95.4206C173.373 94.9719 173.194 94.5423 172.878 94.2228C172.254 93.6523 171.076 93.4912 170.473 94.2228C169.902 94.9172 169.289 95.5755 168.635 96.1938C168.33 96.482 168.017 96.7613 167.696 97.0317C167.513 97.1862 167.327 97.3376 167.138 97.486C167.049 97.5562 166.771 97.743 167.198 97.4414C167.1 97.5105 167.006 97.586 166.91 97.657C165.482 98.7057 163.935 99.5824 162.3 100.269L162.707 100.098C160.953 100.831 159.111 101.334 157.227 101.594L157.679 101.534C155.741 101.788 153.778 101.785 151.84 101.525L152.292 101.585C150.355 101.32 148.461 100.806 146.657 100.056L147.063 100.227C145.322 99.4596 143.67 98.5061 142.135 97.3833C141.337 96.7941 140.494 96.2661 139.616 95.8036C138.592 95.2827 137.484 94.9471 136.343 94.8124C134.203 94.5615 132.022 95.3918 130.846 97.2337C129.763 98.9287 129.777 101.354 131.293 102.796C132.855 104.28 135.219 104.267 137.06 103.339C138.832 102.445 139.896 100.587 140.645 98.8348C142.33 94.8924 143.821 90.8588 145.211 86.8048C146.586 82.7939 147.833 78.7425 148.951 74.6504C149.09 74.1436 149.226 73.6363 149.361 73.1284C149.588 72.2727 149.075 71.2493 148.173 71.0447C147.739 70.9332 147.278 70.9943 146.888 71.215C146.497 71.4358 146.209 71.7989 146.082 72.2278Z" fill="white"/>
<path d="M163.047 71.7584L162.435 93.3943L161.826 114.918L161.482 127.088C161.486 127.536 161.666 127.965 161.984 128.281C162.302 128.598 162.733 128.778 163.182 128.782C163.631 128.773 164.058 128.592 164.375 128.276C164.692 127.96 164.874 127.534 164.883 127.088L165.495 105.452L166.104 83.9286L166.448 71.7584C166.444 71.3103 166.264 70.8817 165.946 70.5648C165.628 70.248 165.197 70.0683 164.747 70.0645C164.299 70.0731 163.872 70.2543 163.555 70.5702C163.238 70.886 163.056 71.3118 163.047 71.7584Z" fill="white"/>
<path opacity="0.2" d="M104.194 121.048H104.722V97.0968H117.039V96.5722H104.722V86.4662H114.233C114.094 86.2895 113.951 86.1151 113.803 85.9429H104.722V79.2681C104.547 79.1939 104.371 79.1224 104.194 79.0549V85.9429H93.844V77.3906C93.6667 77.3987 93.492 77.4109 93.316 77.4257V85.9429H85.0592V79.5621C84.8819 79.6403 84.7073 79.7226 84.534 79.8089V85.9429H77.5931V86.4662H84.534V96.5722H77.5931V97.0968H84.534V121.048H85.0592V97.0968C86.1436 97.0966 87.2174 97.3093 88.2192 97.7226C89.2211 98.1359 90.1314 98.7418 90.8982 99.5057C91.6649 100.27 92.2731 101.176 92.688 102.175C93.1028 103.173 93.3162 104.242 93.316 105.323V121.048H93.844V97.0968H104.194V121.048ZM85.0592 96.5722V86.4662H93.316V96.5722H85.0592ZM93.844 96.5722V86.4662H94.0512C95.3832 86.4663 96.7022 86.7278 97.9328 87.2357C99.1634 87.7436 100.282 88.488 101.223 89.4265C102.165 90.3649 102.912 91.4789 103.422 92.705C103.932 93.9311 104.194 95.2452 104.194 96.5722H93.844Z" fill="black"/>
<path d="M100.969 113.865C100.305 116.819 98.7125 119.485 96.4238 121.477C96.2561 121.621 96.0883 121.761 95.9137 121.899C95.4898 121.938 95.0689 121.977 94.651 122.017C94.3041 122.048 93.9618 122.082 93.6217 122.114L93.5605 122.121L93.5174 121.75L93.3451 120.25C92.6767 119.163 92.2624 117.94 92.1329 116.672C92.0034 115.404 92.162 114.122 92.597 112.923C93.1955 111.315 94.2792 109.895 95.3447 108.485C96.816 106.538 98.2466 104.614 98.2987 102.24C99.0227 103.163 99.6246 104.175 100.09 105.251C99.6509 105.457 99.2566 105.746 98.929 106.102C98.836 106.204 98.7431 106.346 98.8065 106.468C98.861 106.572 98.997 106.597 99.1149 106.611C99.3983 106.64 99.6839 106.669 99.9673 106.699C100.194 106.724 100.421 106.746 100.647 106.771C100.922 107.668 101.108 108.589 101.203 109.522C101.356 110.973 101.277 112.439 100.969 113.865Z" fill="white"/>
<path d="M108.496 107.945C107.159 108.914 106.376 110.308 105.769 111.843C105.146 112.042 104.586 112.398 104.143 112.878C104.05 112.979 103.957 113.122 104.021 113.244C104.075 113.348 104.211 113.372 104.329 113.386C104.613 113.415 104.898 113.445 105.182 113.474C104.574 115.29 104.016 117.169 102.942 118.703C102.227 119.715 101.296 120.557 100.214 121.167C99.9196 121.334 99.6153 121.484 99.303 121.616C98.1514 121.704 97.0216 121.799 95.9137 121.899C95.4898 121.937 95.0689 121.976 94.651 122.016C94.3041 122.048 93.9618 122.082 93.6217 122.113C93.6194 121.989 93.6194 121.865 93.6217 121.741C93.6934 118.431 94.9153 115.25 97.079 112.738C97.181 112.62 97.2853 112.505 97.3919 112.39C98.488 111.224 99.7771 110.253 101.203 109.522C103.449 108.358 105.967 107.814 108.496 107.945Z" fill="#BF2E1B"/>
<path d="M95.0432 120.857L94.7825 121.625L94.651 122.016C94.3041 122.048 93.9618 122.082 93.6217 122.113L93.5605 122.12C93.1842 122.158 92.8101 122.197 92.436 122.235C92.3385 122.122 92.241 122.007 92.1458 121.89C89.7795 119.035 88.6436 115.363 88.9864 111.676C89.3292 107.99 91.1229 104.588 93.9754 102.215C93.6761 103.776 94.0252 105.271 94.5988 106.755C94.5376 106.779 94.4787 106.804 94.422 106.831C93.9831 107.037 93.5888 107.327 93.2612 107.683C93.1683 107.785 93.0753 107.927 93.1388 108.049C93.1932 108.153 93.3293 108.178 93.4471 108.191C93.7305 108.22 94.0162 108.25 94.2996 108.279C94.5263 108.304 94.753 108.327 94.9797 108.351C95.0862 108.363 95.1928 108.374 95.2994 108.385C95.3152 108.419 95.3288 108.451 95.3447 108.485C95.9908 109.881 96.6868 111.283 97.079 112.738C97.1774 113.103 97.2546 113.473 97.3103 113.847C97.4849 115.11 97.3717 116.396 96.9792 117.61C96.5868 118.823 95.9251 119.933 95.0432 120.857Z" fill="#BF2E1B"/>
<path d="M117.863 88.1002C115.912 84.3075 112.888 81.1163 109.332 78.7713C105.764 76.4295 101.67 75.0034 97.4153 74.62C96.8576 74.5695 96.2984 74.5399 95.7379 74.5313C95.0756 74.5214 85.1129 77.3843 81.7755 79.722C78.4399 82.0313 75.696 85.0894 73.7652 88.6496C71.8377 92.2294 70.8897 96.2513 71.0162 100.312C71.1814 104.396 72.3242 108.383 74.3494 111.938C76.347 115.482 79.1833 118.486 82.6117 120.689C86.0889 122.9 89.5819 128.76 93.6875 128.967C97.8239 129.176 102.541 123.647 106.314 121.969C110.087 120.276 113.348 117.628 115.774 114.288C118.13 111.015 119.655 107.222 120.217 103.233C120.8 99.1485 120.528 94.9363 119.128 91.0326C118.769 90.0295 118.347 89.0501 117.863 88.1002C117.46 87.3085 116.277 87.017 115.537 87.4925C115.156 87.7264 114.879 88.0979 114.766 88.5295C114.652 88.9611 114.71 89.4198 114.927 89.8101C115.164 90.275 115.384 90.7477 115.588 91.228L115.417 90.8233C116.187 92.6698 116.711 94.609 116.975 96.5914L116.915 96.1411C117.196 98.2918 117.191 100.47 116.9 102.619L116.96 102.169C116.667 104.318 116.091 106.42 115.248 108.42L115.419 108.015C114.986 109.035 114.48 110.024 113.907 110.973C113.616 111.453 113.308 111.921 112.982 112.379C112.838 112.579 112.691 112.776 112.542 112.973C112.348 113.229 112.807 112.638 112.606 112.889C112.572 112.932 112.538 112.975 112.504 113.018C112.401 113.146 112.296 113.273 112.19 113.399C111.483 114.239 110.712 115.023 109.883 115.744C109.677 115.924 109.467 116.099 109.253 116.271C109.147 116.356 109.042 116.445 108.931 116.525C108.936 116.522 109.289 116.254 109.08 116.409C109.014 116.458 108.949 116.508 108.883 116.557C108.443 116.881 107.991 117.189 107.528 117.481C106.462 118.15 105.343 118.733 104.183 119.223L104.589 119.052C102.588 119.892 100.484 120.465 98.3328 120.758L98.7849 120.697C96.6344 120.987 94.4549 120.991 92.3034 120.709L92.7555 120.769C90.8001 120.508 88.8874 119.993 87.0661 119.237L87.4723 119.408C86.4173 118.964 85.4002 118.436 84.4307 117.829C83.951 117.528 83.4837 117.208 83.0289 116.869C82.964 116.821 82.8996 116.772 82.835 116.724C82.6275 116.568 82.9841 116.839 82.987 116.841C82.8663 116.754 82.7501 116.662 82.639 116.564C82.4193 116.386 82.203 116.203 81.9903 116.017C81.1388 115.27 80.3437 114.461 79.6114 113.598C79.428 113.382 79.2486 113.163 79.0731 112.941C78.9971 112.844 78.8586 112.649 79.1648 113.06C79.1245 113.006 79.0827 112.953 79.042 112.899C78.9443 112.77 78.8479 112.64 78.7528 112.509C78.4198 112.05 78.1034 111.58 77.8034 111.098C77.1254 110.008 76.5338 108.867 76.0338 107.686L76.2052 108.091C75.387 106.151 74.8276 104.113 74.5411 102.029L74.6018 102.48C74.3433 100.558 74.3396 98.6116 74.5908 96.6894L74.5301 97.1397C74.7876 95.2783 75.2903 93.4588 76.0251 91.7283L75.8537 92.1329C76.3161 91.0496 76.8614 90.0033 77.485 89.0033C77.7971 88.5029 78.128 88.0147 78.4774 87.5387C78.5568 87.4305 78.6371 87.323 78.7183 87.2162C78.7917 87.1196 78.9937 86.8789 78.6491 87.3039C78.6828 87.2623 78.7154 87.2194 78.7487 87.1774C78.9404 86.9353 79.1369 86.697 79.338 86.4625C80.0993 85.5747 80.9239 84.7428 81.8054 83.9734C82.0281 83.7789 82.2545 83.5885 82.4843 83.4021C82.5887 83.3175 82.6938 83.2337 82.7996 83.1508C82.842 83.1176 82.8848 83.0851 82.9269 83.0517C82.4741 83.4107 82.8011 83.1494 82.9039 83.0727C83.3776 82.7191 83.8639 82.3832 84.3629 82.0651C85.4721 81.3584 86.639 80.7458 87.8512 80.2338L87.445 80.4046C89.2043 79.6686 96.9987 77.9316 98.4164 78.1212L97.9643 78.0607C100.048 78.3505 102.085 78.911 104.022 79.7281L103.616 79.5573C104.598 79.9726 105.552 80.4501 106.472 80.9868C106.932 81.2554 107.383 81.5387 107.825 81.8366C108.034 81.9776 108.241 82.1218 108.446 82.2691C108.548 82.3428 108.65 82.4172 108.751 82.4925C108.807 82.5343 108.863 82.5766 108.919 82.6185C109.155 82.7945 108.595 82.3637 108.842 82.5583C109.668 83.2053 110.453 83.9033 111.192 84.6482C111.555 85.0164 111.906 85.3962 112.243 85.7878C112.417 85.9886 112.587 86.1925 112.753 86.3993C112.835 86.502 113.117 86.8738 112.772 86.4184C112.856 86.5297 112.941 86.6403 113.025 86.7524C113.741 87.7185 114.377 88.7411 114.927 89.8101C115.334 90.6001 116.511 90.8947 117.253 90.4178C117.635 90.184 117.911 89.8125 118.025 89.3809C118.138 88.9492 118.081 88.4904 117.863 88.1002Z" fill="white"/>
<path d="M98.0512 115.744C97.8756 115.752 97.7019 115.706 97.5534 115.612C97.405 115.519 97.289 115.382 97.2212 115.22C97.1534 115.059 97.1371 114.88 97.1745 114.709C97.2119 114.538 97.3011 114.383 97.4301 114.264C97.4517 114.179 97.4672 114.117 97.4888 114.032C97.4811 114.013 97.4733 113.994 97.4655 113.976C96.6766 112.102 91.6425 117.326 91.4248 119.087C91.329 119.866 91.3694 120.655 91.5443 121.42C89.9137 117.876 89.0669 114.025 89.0615 110.126C89.0612 109.148 89.1157 108.171 89.2249 107.198C89.3151 106.401 89.4404 105.61 89.6005 104.824C90.4745 100.562 92.351 96.5663 95.0759 93.1663C96.6342 93.2529 98 93.0164 98.1319 90.0076C98.1553 89.4723 98.5538 89.0089 98.6416 88.4816C98.4928 88.5011 98.3416 88.5132 98.1928 88.5229C98.1465 88.5254 98.0977 88.5278 98.0514 88.5302L98.0339 88.531C97.8704 88.5383 97.7083 88.4984 97.567 88.416C97.4258 88.3337 97.3114 88.2124 97.2377 88.0668C97.164 87.9212 97.1342 87.7574 97.1517 87.5953C97.1693 87.4332 97.2335 87.2796 97.3366 87.153C97.4009 87.0742 97.4651 86.9955 97.5294 86.9169C97.627 86.7954 97.727 86.6763 97.8246 86.5548C97.8358 86.5433 97.8464 86.5311 97.8563 86.5183C97.9685 86.3798 98.0806 86.2438 98.1929 86.1053C97.9881 85.7886 97.7126 85.5234 97.388 85.3302C96.2636 84.6742 94.7125 85.1285 93.9003 86.1417C93.0857 87.1549 92.9321 88.5764 93.215 89.8423C93.4932 90.9195 93.9534 91.9416 94.5759 92.865C94.5149 92.9427 94.4515 93.0181 94.3905 93.0958C93.2759 94.5237 92.3045 96.0569 91.4901 97.6736C91.7205 95.8806 88.903 89.4053 87.8134 88.0337C86.5046 86.3863 83.8208 87.1053 83.5902 89.1937C83.588 89.2139 83.5858 89.2341 83.5837 89.2543C83.7455 89.3453 83.904 89.4418 84.059 89.5439C84.2537 89.6736 84.4046 89.8588 84.4918 90.0753C84.5791 90.2918 84.5987 90.5295 84.548 90.7573C84.4974 90.9851 84.3789 91.1923 84.208 91.3518C84.0371 91.5114 83.8218 91.6158 83.5903 91.6513L83.5666 91.6549C81.4002 94.7365 88.3451 102.757 90.0834 100.956C89.2652 103.266 88.752 105.672 88.5567 108.114C88.4461 109.555 88.4526 111.002 88.5762 112.442L88.5688 112.391C88.1826 109.255 81.5564 104.594 79.6214 104.982C78.5068 105.206 77.4089 105.155 77.5781 106.275C77.5808 106.293 77.5836 106.311 77.5864 106.328C77.8867 106.45 78.1791 106.591 78.4619 106.749C78.6238 106.84 78.7822 106.936 78.9372 107.038C79.1319 107.168 79.2828 107.353 79.3701 107.57C79.4574 107.786 79.477 108.024 79.4263 108.252C79.3756 108.48 79.2571 108.687 79.0862 108.846C78.9153 109.006 78.7 109.11 78.4686 109.146L78.4448 109.149C78.4278 109.152 78.4131 109.154 78.3961 109.157C77.41 112.537 84.723 117.992 89.1688 116.257H89.1713C89.6118 118.164 90.2502 120.021 91.0761 121.797H97.8806C97.905 121.721 97.927 121.643 97.9489 121.568C97.3191 121.608 96.6868 121.57 96.0661 121.456C96.5709 120.839 97.0758 120.217 97.5807 119.6C97.5919 119.588 97.6025 119.576 97.6124 119.564C97.8684 119.248 98.127 118.934 98.3831 118.618L98.3832 118.618C98.3968 117.65 98.2853 116.684 98.0514 115.744L98.0512 115.744ZM90.259 100.473L90.2626 100.468L90.259 100.478V100.473ZM88.7518 114.009L88.6932 113.878C88.6957 113.783 88.6957 113.688 88.6932 113.591C88.6932 113.564 88.6883 113.538 88.6883 113.511C88.7103 113.679 88.7298 113.846 88.7542 114.014L88.7518 114.009Z" fill="white"/>
<path d="M21.5938 101.637C22.9711 101.637 24.0876 100.525 24.0876 99.1524C24.0876 97.7803 22.9711 96.668 21.5938 96.668C20.2165 96.668 19.1 97.7803 19.1 99.1524C19.1 100.525 20.2165 101.637 21.5938 101.637Z" fill="white"/>
<path d="M51.5194 128.74C52.8967 128.74 54.0132 127.628 54.0132 126.256C54.0132 124.884 52.8967 123.771 51.5194 123.771C50.1421 123.771 49.0256 124.884 49.0256 126.256C49.0256 127.628 50.1421 128.74 51.5194 128.74Z" fill="white"/>
<path d="M165.101 128.74C166.478 128.74 167.595 127.628 167.595 126.256C167.595 124.884 166.478 123.771 165.101 123.771C163.724 123.771 162.607 124.884 162.607 126.256C162.607 127.628 163.724 128.74 165.101 128.74Z" fill="white"/>
<path d="M171.222 97.1193C172.599 97.1193 173.716 96.007 173.716 94.6349C173.716 93.2627 172.599 92.1504 171.222 92.1504C169.845 92.1504 168.728 93.2627 168.728 94.6349C168.728 96.007 169.845 97.1193 171.222 97.1193Z" fill="white"/>
<path d="M163.967 74.0822C165.345 74.0822 166.461 72.9699 166.461 71.5978C166.461 70.2256 165.345 69.1133 163.967 69.1133C162.59 69.1133 161.474 70.2256 161.474 71.5978C161.474 72.9699 162.59 74.0822 163.967 74.0822Z" fill="white"/>
<path d="M59.9077 94.635C59.9062 95.2696 59.6599 95.8794 59.2197 96.3381C58.7795 96.7968 58.1791 97.0694 57.5428 97.0994C56.9065 97.1294 56.283 96.9145 55.8013 96.4993C55.3196 96.084 55.0165 95.5002 54.9549 94.8685C54.8933 94.2369 55.0777 93.6058 55.4701 93.1059C55.8625 92.6059 56.4328 92.2754 57.063 92.1828C57.6932 92.0901 58.335 92.2423 58.8557 92.608C59.3763 92.9736 59.7359 93.5247 59.8601 94.1472C59.8921 94.3078 59.908 94.4712 59.9077 94.635Z" fill="white"/>
<path d="M109.784 81.3107C111.161 81.3107 112.278 80.1984 112.278 78.8263C112.278 77.4541 111.161 76.3418 109.784 76.3418C108.407 76.3418 107.29 77.4541 107.29 78.8263C107.29 80.1984 108.407 81.3107 109.784 81.3107Z" fill="white"/>
<path d="M85.0725 78.8264C85.071 79.4611 84.8247 80.0708 84.3845 80.5295C83.9443 80.9882 83.3439 81.2608 82.7076 81.2908C82.0713 81.3208 81.4478 81.1059 80.9661 80.6907C80.4844 80.2754 80.1813 79.6916 80.1197 79.0599C80.058 78.4283 80.2425 77.7972 80.6349 77.2973C81.0273 76.7973 81.5976 76.4668 82.2278 76.3742C82.858 76.2815 83.4998 76.4337 84.0205 76.7994C84.5411 77.165 84.9007 77.7161 85.0249 78.3386C85.0569 78.4992 85.0728 78.6626 85.0725 78.8264Z" fill="white"/>
<path d="M52.8797 71.5979C52.8782 72.2325 52.6319 72.8423 52.1917 73.301C51.7515 73.7597 51.1511 74.0323 50.5148 74.0623C49.8785 74.0923 49.255 73.8774 48.7733 73.4622C48.2915 73.0469 47.9885 72.4631 47.9269 71.8314C47.8652 71.1998 48.0497 70.5687 48.4421 70.0687C48.8345 69.5688 49.4048 69.2383 50.035 69.1457C50.6652 69.053 51.307 69.2052 51.8277 69.5709C52.3483 69.9365 52.7079 70.4876 52.8321 71.1101C52.8641 71.2707 52.88 71.4341 52.8797 71.5979Z" fill="white"/>
<path d="M135.855 102.541C137.233 102.541 138.349 101.429 138.349 100.057C138.349 98.6846 137.233 97.5723 135.855 97.5723C134.478 97.5723 133.362 98.6846 133.362 100.057C133.362 101.429 134.478 102.541 135.855 102.541Z" fill="white"/>
<path d="M96.6347 79.9541C98.638 79.9541 100.262 78.3362 100.262 76.3403C100.262 74.3445 98.638 72.7266 96.6347 72.7266C94.6313 72.7266 93.0073 74.3445 93.0073 76.3403C93.0073 78.3362 94.6313 79.9541 96.6347 79.9541Z" fill="white"/>
<path d="M194.73 128.93L0.269937 129C0.234488 129 0.199386 128.993 0.166635 128.979C0.133885 128.966 0.104129 128.946 0.0790626 128.921C0.0539965 128.896 0.0341105 128.866 0.0205449 128.834C0.00697917 128.801 0 128.766 0 128.731C0 128.696 0.00697917 128.661 0.0205449 128.628C0.0341105 128.595 0.0539965 128.566 0.0790626 128.541C0.104129 128.516 0.133885 128.496 0.166635 128.482C0.199386 128.469 0.234488 128.462 0.269937 128.462L194.73 128.393C194.802 128.393 194.87 128.421 194.92 128.472C194.971 128.522 194.999 128.59 194.999 128.662C194.999 128.733 194.971 128.801 194.92 128.851C194.87 128.902 194.802 128.93 194.73 128.93Z" fill="#CACACA"/>
</g>
<defs>
<clipPath id="clip0_1824_9713">
<rect width="195" height="129" fill="white"/>
</clipPath>
</defs>
</svg>
