<svg width="69" height="88" viewBox="0 0 69 88" fill="none" xmlns="http://www.w3.org/2000/svg">
<path opacity="0.1" d="M34.5 87.1094C53.5538 87.1094 69 84.7817 69 81.9102C69 79.0387 53.5538 76.7109 34.5 76.7109C15.4462 76.7109 0 79.0387 0 81.9102C0 84.7817 15.4462 87.1094 34.5 87.1094Z" fill="#6C63FF"/>
<path d="M35.158 77.8317C35.158 77.8317 35.09 79.6612 31.092 79.1194C27.094 78.5777 32.4478 81.763 32.4478 81.763L43.2264 81.9658C43.2264 81.9658 43.8603 77.2856 42.2776 77.2856C42.2081 77.2899 35.158 77.8317 35.158 77.8317Z" fill="#4A4347"/>
<path opacity="0.1" d="M35.158 77.8317C35.158 77.8317 35.09 79.6612 31.092 79.1194C27.094 78.5777 32.4478 81.763 32.4478 81.763L43.2264 81.9658C43.2264 81.9658 43.8603 77.2856 42.2776 77.2856C42.2081 77.2899 35.158 77.8317 35.158 77.8317Z" fill="black"/>
<path d="M26.755 48.6206C26.8114 48.8406 26.9221 49.0429 27.0769 49.2091C28.6469 50.9465 34.8134 50.4203 35.4303 50.789C35.5239 50.8458 35.6133 51.1507 35.697 51.64C35.9877 53.3334 36.2104 57.2122 36.3494 60.2785C36.4572 62.6597 36.5153 64.5516 36.5153 64.5516L36.8599 79.392L40.8508 78.768L43.3611 78.3808L42.1414 68.6886C42.1414 68.6886 42.0734 59.7424 42.2833 59.1992C42.8988 57.5583 42.5556 54.9445 42.1414 52.9972C41.7949 51.3834 41.7608 49.7182 42.0407 48.0916C42.7499 44.0226 41.7174 40.8742 41.0125 39.3212C40.8489 38.9536 40.6593 38.5982 40.4452 38.2575C40.4452 38.2575 30.4821 38.1157 28.7193 39.2063C28.3902 39.4344 28.1203 39.7378 27.9321 40.0913C26.7309 42.1236 26.2444 46.5797 26.755 48.6206Z" fill="#5A5773"/>
<path d="M32.584 80.5431C32.584 80.5431 32.5159 82.3726 28.5179 81.8308C25.9353 81.4805 27.2542 82.6818 28.5179 83.5824C29.3342 84.1634 30.3072 84.4838 31.309 84.5014L40.6551 84.6772C40.6551 84.6772 41.2891 79.9971 39.7063 79.9971C39.6326 80.0013 32.584 80.5431 32.584 80.5431Z" fill="#4A4347"/>
<path d="M46.5464 25.9827C46.5464 25.9827 47.1549 26.0281 48.1065 26.055C49.1617 26.0848 50.6409 26.0905 52.1754 25.9827C55.0899 25.7799 54.412 23.7461 54.412 23.7461L53.2604 15.7487C53.2604 15.7487 50.3459 9.03904 49.5333 11.0047C48.7206 12.9704 51.0238 16.0877 51.0238 16.0877C51.0238 16.0877 52.0407 21.3749 51.0238 22.1194C50.3799 22.5917 49.3219 22.2939 48.6128 22.0116C48.3787 21.9181 48.1505 21.8106 47.9292 21.6897L46.5464 25.9827Z" fill="#A1616A"/>
<path d="M15.8431 5.7176L16.5891 13.8512C16.5891 13.8512 17.4698 15.546 18.4867 16.0877C19.183 16.4593 20.5445 17.6237 21.3359 18.3215C21.7004 18.6434 21.9443 18.8661 21.9443 18.8661L23.9781 15.6126C23.8381 15.421 23.6809 15.2426 23.5086 15.0794C22.7967 14.3867 21.9008 13.9132 20.9275 13.715C20.9275 13.715 20.7587 13.2073 20.3857 12.2968C20.1247 11.6572 18.4881 8.09456 18.4881 8.09456C18.4881 8.09456 17.8102 5.24816 17.9463 3.82425C18.0825 2.40034 15.8459 -0.309906 15.507 0.0290521C15.168 0.36801 14.8943 4.36176 15.8431 5.7176Z" fill="#A1616A"/>
<path d="M31.0253 19.6797C31.0253 19.6797 38.3448 20.6966 37.396 19.0699C37.1351 18.6231 36.9819 17.975 36.8968 17.2716C36.6727 15.4165 36.9224 13.1729 36.9224 13.1729L31.4324 14.1217C31.7478 15.175 31.8249 16.2854 31.6579 17.3722C31.5508 18.1662 31.3381 18.9422 31.0253 19.6797Z" fill="#A1616A"/>
<path d="M33.5668 15.9187C35.5132 15.9187 37.0911 14.3409 37.0911 12.3944C37.0911 10.448 35.5132 8.87012 33.5668 8.87012C31.6204 8.87012 30.0425 10.448 30.0425 12.3944C30.0425 14.3409 31.6204 15.9187 33.5668 15.9187Z" fill="#A1616A"/>
<path opacity="0.1" d="M27.9336 40.0888C28.2586 40.3589 28.6455 40.5441 29.0597 40.6278C30.1446 40.8306 33.6689 41.2376 35.0248 40.1527C36.0998 39.2932 39.6043 39.2847 41.0083 39.3187C40.8447 38.9512 40.6551 38.5957 40.441 38.2551C40.441 38.2551 30.4779 38.1132 28.715 39.2039C28.388 39.4327 28.1202 39.736 27.9336 40.0888Z" fill="black"/>
<path opacity="0.1" d="M21.3359 18.3212C21.7004 18.6431 21.9444 18.8658 21.9444 18.8658L23.9781 15.6124C23.8381 15.4208 23.681 15.2423 23.5087 15.0791C22.5187 15.2691 21.6593 17.4078 21.3359 18.3212Z" fill="black"/>
<path opacity="0.1" d="M46.5464 25.9829C46.5464 25.9829 47.1549 26.0283 48.1065 26.0553C49.6042 24.2584 48.8085 22.4827 48.6185 22.0119C48.3844 21.9183 48.1561 21.8108 47.9349 21.6899L46.5464 25.9829Z" fill="black"/>
<path opacity="0.1" d="M31.0253 19.6799C31.0253 19.6799 38.3448 20.6967 37.396 19.07C37.1351 18.6233 36.9819 17.9752 36.8968 17.2717C36.3 17.0273 35.6681 16.8794 35.0248 16.8335C33.7682 16.52 32.4237 17.0065 31.6579 17.3724C31.5508 18.1663 31.3381 18.9423 31.0253 19.6799Z" fill="black"/>
<path d="M35.0248 16.9701C35.0248 16.9701 37.9392 17.1119 38.481 19.0038C38.481 19.0038 41.3274 19.9526 42.8194 20.0207C44.3114 20.0888 48.3094 21.7155 48.3775 21.9864C48.4455 22.2572 49.7957 24.6299 47.2258 26.7984C47.2258 26.7984 44.3114 25.7816 43.0236 27.6111C41.7359 29.4406 40.3119 38.184 41.6054 39.1328C41.6054 39.1328 36.3863 38.8619 35.0304 39.9455C33.6746 41.029 30.1503 40.6234 29.0653 40.4206C27.9804 40.2178 26.4898 39.0648 26.4217 35.8822C26.3537 32.6997 27.5067 25.8511 25.8119 25.0384C24.1171 24.2258 21.4069 18.7982 21.4069 18.7982C21.4069 18.7982 22.4918 15.2738 23.7796 15.1377C23.7796 15.1377 26.9649 17.1034 28.3179 17.2381C29.2403 17.3478 30.149 17.5522 31.0296 17.8479C31.0296 17.8479 33.1272 16.4921 35.0248 16.9701Z" fill="#88F63D"/>
<path opacity="0.1" d="M37.3294 64.8191C37.3294 64.8191 36.7522 62.2663 36.3494 60.2808C36.4572 62.662 36.5154 64.5539 36.5154 64.5539L36.86 79.3915L40.8509 78.7675L37.3294 64.8191Z" fill="black"/>
<path d="M27.162 47.4634C27.162 47.4634 25.8062 52.6825 27.162 54.512C28.5179 56.3415 30.0765 63.7972 30.0765 63.7972C30.0765 63.7972 31.0934 69.0163 31.8394 69.8956C32.5854 70.7749 32.2464 81.1465 32.2464 81.1465L41.0579 80.6714L37.0585 64.8112C37.0585 64.8112 35.7707 59.1184 35.7027 58.1016C35.6346 57.0847 35.2956 48.2732 35.2956 48.2732L27.162 47.4634Z" fill="#5A5773"/>
<path opacity="0.1" d="M31.4324 10.7874C30.7628 10.5374 30.1524 10.1512 29.6397 9.65322C29.1271 9.15521 28.7234 8.55623 28.4541 7.89417C28.8285 7.75235 29.2214 8.0984 29.6199 8.07145C30.1021 8.03883 30.3758 7.50416 30.7885 7.26022C31.326 6.93402 32.0323 7.1184 32.5755 7.43892C33.1187 7.75944 33.6051 8.18917 34.2051 8.37921C34.7185 8.54231 35.2701 8.50968 35.8091 8.54089C36.4927 8.57918 37.9024 8.70115 38.4144 9.22306C38.698 9.5067 38.5704 9.79035 38.3123 10.0286C38.3818 10.4271 38.2413 10.7945 38.2867 11.2653C38.3533 11.6726 38.298 12.0905 38.1279 12.4666C37.9336 12.9956 37.6599 13.4111 37.3947 13.9089C37.2188 14.2408 37.3195 14.6762 37.111 14.9896C36.9994 15.136 36.8532 15.2524 36.6855 15.3286C35.6857 15.8631 34.5218 16.0033 33.4236 15.7214C33.0549 15.625 32.6748 15.4605 32.4776 15.1343C32.15 14.5911 32.4776 13.899 32.4436 13.265C32.4053 12.3687 31.6494 11.6355 31.4324 10.7874Z" fill="black"/>
<path d="M31.499 10.72C30.8295 10.47 30.219 10.0838 29.7064 9.58584C29.1937 9.08783 28.79 8.48885 28.5208 7.82679C28.8952 7.68496 29.288 8.03101 29.6865 8.00407C30.1687 7.97145 30.4425 7.43677 30.8552 7.19284C31.3927 6.86664 32.099 7.05101 32.6421 7.37154C33.1853 7.69206 33.6718 8.12178 34.2717 8.31183C34.7851 8.47492 35.3368 8.4423 35.8757 8.4735C36.5593 8.51179 37.969 8.63377 38.481 9.15568C38.7647 9.43932 38.637 9.72297 38.3789 9.96123C38.4484 10.3598 38.308 10.7271 38.3534 11.1979C38.4199 11.6053 38.3647 12.0232 38.1945 12.3992C38.0002 12.9282 37.7265 13.3437 37.4613 13.8415C37.2854 14.1734 37.3861 14.6088 37.1777 14.9222C37.066 15.0686 36.9198 15.1851 36.7522 15.2612C35.7524 15.7957 34.5884 15.9359 33.4902 15.654C33.1215 15.5576 32.7414 15.3931 32.5443 15.0669C32.2167 14.5237 32.5443 13.8316 32.5102 13.1976C32.4734 12.3027 31.7175 11.5681 31.499 10.72Z" fill="#4A4347"/>
<path opacity="0.1" d="M32.2109 15.4442L31.7174 15.6187L31.6947 15.3818C31.6947 15.3818 31.6692 15.5123 32.2109 15.4442Z" fill="black"/>
</svg>
