<svg width="67" height="66" viewBox="0 0 67 66" fill="none" xmlns="http://www.w3.org/2000/svg">
<g id="confetti 1">
<g id="flat">
<path id="Vector" d="M53.2676 62.9175L47.2696 56.8854C46.9321 56.5461 46.7433 56.0866 46.7447 55.608C46.746 55.1295 46.9374 54.671 47.2768 54.3336L48.9219 52.6978L56.1922 60.0094L53.2676 62.9175Z" fill="#0296E5"/>
<path id="Vector_2" d="M51.8296 55.6204L47.2856 51.0506C46.9482 50.7113 46.7594 50.2518 46.7608 49.7732C46.7621 49.2947 46.9535 48.8362 47.2929 48.4988L48.938 46.863L53.4819 51.4327C53.8193 51.7721 54.0082 52.2316 54.0068 52.7101C54.0055 53.1887 53.814 53.6471 53.4747 53.9845L51.8296 55.6204Z" fill="#0276B4"/>
<path id="Vector_3" d="M51.8452 49.7856L44.5749 42.4741L47.4995 39.566L53.4975 45.598C53.835 45.9373 54.0238 46.3968 54.0224 46.8754C54.0211 47.354 53.8297 47.8124 53.4903 48.1498L51.8452 49.7856Z" fill="#0296E5"/>
<path id="Vector_4" d="M4.65088 59.366L13.3134 53.7663L14.5733 55.7153C14.8332 56.1174 14.9227 56.6062 14.8222 57.0743C14.7217 57.5424 14.4394 57.9513 14.0373 58.2112L6.89075 62.831L4.65088 59.366Z" fill="#02A437"/>
<path id="Vector_5" d="M9.12336 51.5628L14.5374 48.063L15.7974 50.012C15.926 50.2111 16.0143 50.4336 16.057 50.6668C16.0997 50.8999 16.096 51.1392 16.0463 51.371C15.9965 51.6028 15.9016 51.8224 15.7669 52.0175C15.6322 52.2126 15.4604 52.3792 15.2614 52.5079L9.8473 56.0077L8.58737 54.0587C8.32747 53.6566 8.23793 53.1678 8.33845 52.6997C8.43897 52.2316 8.72131 51.8227 9.12336 51.5628Z" fill="#029532"/>
<path id="Vector_6" d="M10.3475 45.8594L17.494 41.2397L19.7339 44.7047L11.0714 50.3044L9.81149 48.3553C9.55159 47.9532 9.46205 47.4644 9.56257 46.9963C9.66309 46.5283 9.94543 46.1193 10.3475 45.8594Z" fill="#02A437"/>
<path id="Vector_7" d="M17.3682 3.09473L23.4257 9.06721C23.7665 9.40321 23.9599 9.86082 23.9632 10.3394C23.9666 10.8179 23.7798 11.2782 23.4438 11.619L21.8149 13.2711L14.4724 6.03173L17.3682 3.09473Z" fill="#0296E5"/>
<path id="Vector_8" d="M18.8794 10.3726L23.4685 14.8972C23.8092 15.2332 24.0026 15.6908 24.006 16.1693C24.0094 16.6479 23.8225 17.1082 23.4865 17.449L21.8576 19.1011L17.2686 14.5764C16.9278 14.2404 16.7344 13.7828 16.7311 13.3043C16.7277 12.8257 16.9145 12.3654 17.2505 12.0246L18.8794 10.3726Z" fill="#0276B4"/>
<path id="Vector_9" d="M18.9224 16.2036L26.2649 23.443L23.3691 26.38L17.3116 20.4075C16.9708 20.0715 16.7774 19.6139 16.774 19.1353C16.7706 18.6568 16.9575 18.1965 17.2935 17.8557L18.9224 16.2036Z" fill="#0296E5"/>
<path id="Vector_10" d="M33.5 13.4062C34.6391 13.4062 35.5625 12.4828 35.5625 11.3438C35.5625 10.2047 34.6391 9.28125 33.5 9.28125C32.3609 9.28125 31.4375 10.2047 31.4375 11.3438C31.4375 12.4828 32.3609 13.4062 33.5 13.4062Z" fill="#E82F3E"/>
<path id="Vector_11" d="M59.2812 42.2812C60.4203 42.2812 61.3438 41.3578 61.3438 40.2188C61.3438 39.0797 60.4203 38.1562 59.2812 38.1562C58.1422 38.1562 57.2188 39.0797 57.2188 40.2188C57.2188 41.3578 58.1422 42.2812 59.2812 42.2812Z" fill="#02A437"/>
<path id="Vector_12" d="M25.25 59.8125C26.3891 59.8125 27.3125 58.8891 27.3125 57.75C27.3125 56.6109 26.3891 55.6875 25.25 55.6875C24.1109 55.6875 23.1875 56.6109 23.1875 57.75C23.1875 58.8891 24.1109 59.8125 25.25 59.8125Z" fill="#E82F3E"/>
<path id="Vector_13" d="M8.75 15.4688C9.88909 15.4688 10.8125 14.5453 10.8125 13.4062C10.8125 12.2672 9.88909 11.3438 8.75 11.3438C7.61091 11.3438 6.6875 12.2672 6.6875 13.4062C6.6875 14.5453 7.61091 15.4688 8.75 15.4688Z" fill="#EA9D2D"/>
<path id="Vector_14" d="M11.8438 37.125C14.1219 37.125 15.9688 35.2782 15.9688 33C15.9688 30.7218 14.1219 28.875 11.8438 28.875C9.56558 28.875 7.71875 30.7218 7.71875 33C7.71875 35.2782 9.56558 37.125 11.8438 37.125Z" fill="#FBB540"/>
<path id="Vector_15" d="M50 31.9688C51.7086 31.9688 53.0938 30.5836 53.0938 28.875C53.0938 27.1664 51.7086 25.7812 50 25.7812C48.2914 25.7812 46.9062 27.1664 46.9062 28.875C46.9062 30.5836 48.2914 31.9688 50 31.9688Z" fill="#0296E5"/>
<path id="Vector_16" d="M56.1875 13.4062C58.4657 13.4062 60.3125 11.5594 60.3125 9.28125C60.3125 7.00308 58.4657 5.15625 56.1875 5.15625C53.9093 5.15625 52.0625 7.00308 52.0625 9.28125C52.0625 11.5594 53.9093 13.4062 56.1875 13.4062Z" fill="#E82F3E"/>
<path id="Vector_17" d="M34.4801 25.1023L36.1965 30.3848H41.7504C41.9679 30.3848 42.1797 30.4536 42.3556 30.5814C42.5315 30.7092 42.6624 30.8894 42.7296 31.0962C42.7967 31.3029 42.7968 31.5257 42.7296 31.7324C42.6624 31.9392 42.5315 32.1194 42.3557 32.2472L37.8621 35.5119L39.5785 40.7943C39.6457 41.0011 39.6458 41.2239 39.5786 41.4307C39.5114 41.6375 39.3805 41.8177 39.2046 41.9455C39.0287 42.0733 38.8168 42.1421 38.5994 42.1421C38.382 42.142 38.1701 42.0732 37.9942 41.9453L33.5004 38.6807L29.0069 41.946C28.831 42.0738 28.6192 42.1427 28.4018 42.1427C28.1843 42.1427 27.9725 42.0739 27.7966 41.9461C27.6207 41.8183 27.4897 41.6381 27.4226 41.4313C27.3554 41.2245 27.3554 41.0018 27.4226 40.795L29.139 35.5125L24.6455 32.2479C24.4696 32.12 24.3387 31.9398 24.2715 31.7329C24.2044 31.5261 24.2044 31.3033 24.2717 31.0965C24.339 30.8897 24.47 30.7095 24.646 30.5818C24.822 30.454 25.0339 30.3853 25.2513 30.3854H30.805L32.5214 25.103C32.5884 24.896 32.7192 24.7155 32.8951 24.5875C33.071 24.4595 33.283 24.3905 33.5005 24.3904C33.7181 24.3903 33.9301 24.4592 34.1061 24.5871C34.2821 24.715 34.413 24.8954 34.4801 25.1023Z" fill="#FBB540"/>
<path id="Vector_18" d="M32.8389 46.3994L37.6527 50.2852L35.0622 53.4944L30.2484 49.6087L32.8389 46.3994Z" fill="#02A437"/>
<path id="Vector_19" d="M58.6118 18.5398L63.4257 22.4255L60.8352 25.6348L56.0213 21.749L58.6118 18.5398Z" fill="#029532"/>
<path id="Vector_20" d="M39.6719 20.2671L43.5576 15.4532L46.7669 18.0437L42.8811 22.8576L39.6719 20.2671Z" fill="#02A437"/>
<g id="Group">
<path id="Vector_21" d="M42.7813 8.25003C42.6458 8.2502 42.5117 8.22361 42.3865 8.17178C42.2614 8.11994 42.1477 8.0439 42.0521 7.948L39.9896 5.8855C39.8938 5.78974 39.8178 5.67605 39.766 5.55093C39.7142 5.42581 39.6875 5.29171 39.6875 5.15628C39.6875 5.02085 39.7142 4.88674 39.766 4.76162C39.8178 4.6365 39.8938 4.52282 39.9896 4.42705C40.0853 4.33129 40.199 4.25533 40.3241 4.2035C40.4492 4.15167 40.5834 4.125 40.7188 4.125C40.8542 4.125 40.9883 4.15167 41.1134 4.2035C41.2386 4.25533 41.3522 4.33129 41.448 4.42705L43.5105 6.48955C43.6547 6.63378 43.753 6.81753 43.7928 7.01758C43.8325 7.21763 43.8121 7.42498 43.7341 7.61342C43.656 7.80187 43.5238 7.96293 43.3542 8.07624C43.1846 8.18956 42.9853 8.25003 42.7813 8.25003Z" fill="#E82F3E"/>
<path id="Vector_22" d="M23.1862 50.5312C22.9996 50.5311 22.8165 50.4803 22.6565 50.3843C22.4965 50.2883 22.3655 50.1507 22.2775 49.9861C22.1896 49.8215 22.1479 49.6362 22.157 49.4498C22.1661 49.2634 22.2255 49.083 22.3291 48.9277L24.3916 45.834C24.544 45.608 24.7796 45.4516 25.0471 45.3989C25.3145 45.3462 25.5919 45.4014 25.8186 45.5526C26.0454 45.7038 26.2031 45.9387 26.2572 46.2058C26.3114 46.4729 26.2576 46.7506 26.1076 46.9782L24.0451 50.0719C23.9509 50.2134 23.8232 50.3293 23.6733 50.4095C23.5235 50.4896 23.3561 50.5314 23.1862 50.5312Z" fill="#E82F3E"/>
<path id="Vector_23" d="M42.7813 59.8125C42.6458 59.8127 42.5117 59.7861 42.3865 59.7343C42.2614 59.6824 42.1477 59.6064 42.0521 59.5105L39.9896 57.448C39.7962 57.2546 39.6875 56.9923 39.6875 56.7188C39.6875 56.4453 39.7962 56.183 39.9896 55.9896C40.183 55.7962 40.4453 55.6875 40.7188 55.6875C40.9923 55.6875 41.2546 55.7962 41.448 55.9896L43.5105 58.0521C43.6547 58.1963 43.753 58.38 43.7928 58.5801C43.8325 58.7801 43.8121 58.9875 43.7341 59.1759C43.656 59.3644 43.5238 59.5254 43.3542 59.6387C43.1846 59.7521 42.9853 59.8125 42.7813 59.8125Z" fill="#E82F3E"/>
<path id="Vector_24" d="M56.1875 35.0625C55.9836 35.0625 55.7842 35.0021 55.6146 34.8887C55.445 34.7754 55.3128 34.6144 55.2348 34.4259C55.1567 34.2375 55.1363 34.0301 55.1761 33.8301C55.2159 33.63 55.3141 33.4463 55.4583 33.3021L57.5208 31.2396C57.7142 31.0462 57.9765 30.9375 58.25 30.9375C58.5236 30.9375 58.7859 31.0462 58.9793 31.2396C59.1727 31.433 59.2813 31.6953 59.2813 31.9688C59.2813 32.2423 59.1727 32.5046 58.9793 32.698L56.9168 34.7605C56.8211 34.8564 56.7074 34.9325 56.5823 34.9843C56.4571 35.0361 56.323 35.0627 56.1875 35.0625Z" fill="#E82F3E"/>
<path id="Vector_25" d="M7.71878 24.75C7.58332 24.7502 7.44917 24.7236 7.32403 24.6718C7.19888 24.62 7.08522 24.5439 6.98955 24.448L4.92705 22.3855C4.83129 22.2897 4.75533 22.1761 4.7035 22.0509C4.65167 21.9258 4.625 21.7917 4.625 21.6563C4.625 21.5208 4.65167 21.3867 4.7035 21.2616C4.75533 21.1365 4.83129 21.0228 4.92705 20.9271C5.12046 20.7337 5.38276 20.625 5.65628 20.625C5.79171 20.625 5.92581 20.6517 6.05093 20.7035C6.17605 20.7553 6.28974 20.8313 6.3855 20.9271L8.448 22.9896C8.59223 23.1338 8.69045 23.3175 8.73025 23.5176C8.77004 23.7176 8.74962 23.925 8.67156 24.1134C8.59351 24.3019 8.46132 24.4629 8.29173 24.5762C8.12213 24.6896 7.92274 24.75 7.71878 24.75Z" fill="#E82F3E"/>
</g>
</g>
</g>
</svg>
