<svg width="97" height="131" viewBox="0 0 97 131" fill="none" xmlns="http://www.w3.org/2000/svg">
<g id="Group 11554">
<path id="Vector" d="M48.4999 131C75.2207 131 96.8821 127.17 96.8821 122.445C96.8821 117.72 75.2207 113.889 48.4999 113.889C21.7791 113.889 0.117676 117.72 0.117676 122.445C0.117676 127.17 21.7791 131 48.4999 131Z" fill="#3F3D56"/>
<path id="Vector_2" d="M48.8601 94.6591C74.9746 94.6591 96.1445 73.4689 96.1445 47.3295C96.1445 21.1902 74.9746 0 48.8601 0C22.7456 0 1.57568 21.1902 1.57568 47.3295C1.57568 73.4689 22.7456 94.6591 48.8601 94.6591Z" fill="#3F3D56"/>
<path id="Vector_3" opacity="0.05" d="M48.86 86.4015C70.4183 86.4015 87.8948 68.9084 87.8948 47.3295C87.8948 25.7506 70.4183 8.25745 48.86 8.25745C27.3017 8.25745 9.8252 25.7506 9.8252 47.3295C9.8252 68.9084 27.3017 86.4015 48.86 86.4015Z" fill="black"/>
<path id="Vector_4" opacity="0.05" d="M48.8601 79.3524C66.5291 79.3524 80.8526 65.0153 80.8526 47.3295C80.8526 29.6437 66.5291 15.3065 48.8601 15.3065C31.1912 15.3065 16.8677 29.6437 16.8677 47.3295C16.8677 65.0153 31.1912 79.3524 48.8601 79.3524Z" fill="black"/>
<path id="Vector_5" opacity="0.05" d="M48.8603 70.2894C61.5286 70.2894 71.7983 60.0099 71.7983 47.3295C71.7983 34.6491 61.5286 24.3696 48.8603 24.3696C36.192 24.3696 25.9224 34.6491 25.9224 47.3295C25.9224 60.0099 36.192 70.2894 48.8603 70.2894Z" fill="black"/>
<path id="Vector_6" opacity="0.1" d="M14.5928 65.1402L20.9264 76.441L15.5902 64.533L14.5928 65.1402Z" fill="black"/>
<path id="Vector_7" d="M87.7857 123.622C91.5102 123.622 94.5294 120.6 94.5294 116.872C94.5294 113.144 91.5102 110.122 87.7857 110.122C84.0613 110.122 81.042 113.144 81.042 116.872C81.042 120.6 84.0613 123.622 87.7857 123.622Z" fill="#BF2E1B"/>
<path id="Vector_8" d="M8.58649 121.267C12.3109 121.267 15.3302 118.245 15.3302 114.517C15.3302 110.789 12.3109 107.767 8.58649 107.767C4.86204 107.767 1.84277 110.789 1.84277 114.517C1.84277 118.245 4.86204 121.267 8.58649 121.267Z" fill="#BF2E1B"/>
<path id="Vector_9" d="M8.58636 110.436C11.2714 110.436 13.4481 108.257 13.4481 105.569C13.4481 102.882 11.2714 100.703 8.58636 100.703C5.90129 100.703 3.72461 102.882 3.72461 105.569C3.72461 108.257 5.90129 110.436 8.58636 110.436Z" fill="#BF2E1B"/>
<path id="Vector_10" d="M8.5865 101.488C10.492 101.488 12.0368 99.9415 12.0368 98.0341C12.0368 96.1268 10.492 94.5806 8.5865 94.5806C6.68097 94.5806 5.13623 96.1268 5.13623 98.0341C5.13623 99.9415 6.68097 101.488 8.5865 101.488Z" fill="#BF2E1B"/>
</g>
</svg>
