<svg xmlns="http://www.w3.org/2000/svg" width="77" height="73" viewBox="0 0 77 73" fill="none">
  <path d="M42.7109 67.3699L50.3441 56.0447L42.7265 68.5883L42.7424 69.8627C42.1852 69.8669 41.6333 69.8577 41.0869 69.8349L41.4655 53.4536L41.4551 53.3273L41.4691 53.3028L41.5053 51.7549L33.1461 39.6461L41.4954 50.5964L41.5251 50.9236L41.811 38.5469L34.5909 25.9928L41.8316 36.3726L41.756 10.7313L41.7562 10.646L41.7586 10.7299L42.2379 30.9387L48.8182 22.7299L42.2595 32.6797L42.4031 43.7503L48.4583 32.9458L42.4253 45.3779L42.5053 51.5338L51.3112 36.4832L42.5321 53.6813L42.7109 67.3699Z" fill="#E6E6E6"/>
  <path d="M68.3996 67.7264L76.0328 56.4011L68.4153 68.9447L68.4312 70.2191C67.8739 70.2234 67.3221 70.2141 66.7757 70.1913L67.1543 53.8101L67.1439 53.6837L67.1578 53.6593L67.1941 52.1113L58.8348 40.0026L67.1842 50.9528L67.2138 51.28L67.4998 38.9033L60.2797 26.3493L67.5204 36.7291L67.4448 11.0878L67.445 11.0024L67.4474 11.0864L67.9267 31.2952L74.507 23.0863L67.9482 33.0361L68.0919 44.1068L74.1471 33.3022L68.1141 45.7343L68.1941 51.8902L77 36.8396L68.2208 54.0377L68.3996 67.7264Z" fill="#E6E6E6"/>
  <path d="M76.4726 69.7461H0V70.2735H76.4726V69.7461Z" fill="#3F3D56"/>
  <path d="M13.5193 21.8601C13.5193 21.8601 12.4866 14.3042 10.7653 16.3649C9.04414 18.4256 10.7653 21.5167 10.7653 21.5167L12.1423 23.2339L13.5193 22.2036V21.8601Z" fill="#9F616A"/>
  <path d="M17.6503 24.2644C17.6503 24.2644 14.2079 20.4864 13.5194 21.1733C12.8309 21.8602 10.7654 22.2037 11.1097 23.5775C11.4539 24.9513 18.683 29.4162 18.683 29.4162L17.6503 24.2644Z" fill="#88F63D"/>
  <path opacity="0.1" d="M17.6503 24.2644C17.6503 24.2644 14.2079 20.4864 13.5194 21.1733C12.8309 21.8602 10.7654 22.2037 11.1097 23.5775C11.4539 24.9513 18.683 29.4162 18.683 29.4162L17.6503 24.2644Z" fill="black"/>
  <path d="M37.272 23.9214V26.669C37.272 26.669 37.6163 32.8511 35.5508 32.5077C33.4853 32.1642 34.5181 27.0125 34.5181 27.0125L34.8623 23.9214L37.272 23.9214Z" fill="#9F616A"/>
  <path d="M36.2393 43.8413C36.2393 43.8413 39.3375 48.6496 40.3702 48.9931C41.403 49.3365 46.9109 52.4276 47.5993 55.5187L52.4187 61.7008L50.009 64.7919C50.009 64.7919 38.9933 53.1145 35.8951 52.0842C32.7969 51.0538 29.6987 45.902 29.6987 45.902L36.2393 43.8413Z" fill="#9F616A"/>
  <path d="M11.798 35.9424C11.798 35.9424 5.25742 36.9727 6.29015 41.0942C7.32287 45.2156 17.3059 53.8019 17.3059 53.8019L17.6502 55.8626L21.4368 56.5495L23.158 54.8323L22.8138 53.8019C22.8138 53.8019 18.6829 50.0239 18.3386 48.6501C17.9944 47.2763 14.2077 41.7811 12.4865 41.4376L14.8962 40.0638L11.798 35.9424Z" fill="#9F616A"/>
  <path d="M51.3859 61.7002C51.3859 61.7002 50.009 59.6395 52.0744 59.9829C54.1399 60.3264 55.5169 60.6699 55.5169 62.0437C55.5169 63.4175 53.7956 73.0341 51.7302 72.3472C49.6647 71.6603 51.3859 68.5693 51.3859 68.5693C51.3859 68.5693 50.3532 65.8216 49.6647 65.4782C48.9763 65.1347 48.9763 63.4175 49.6647 63.4175C50.3532 63.4175 51.7302 62.3871 51.3859 61.7002Z" fill="#2F2E41"/>
  <path d="M22.1253 54.1451C22.1253 54.1451 22.1253 52.4278 23.5023 54.1451C24.8793 55.8623 25.5677 57.2361 24.1908 58.2665C22.8138 59.2968 17.9944 61.701 17.9944 61.701C17.9944 61.701 12.8308 62.7314 13.5193 60.3272C13.5193 60.3272 16.9617 58.6099 16.9617 57.2361C16.9617 55.8623 16.9617 53.4582 17.9944 54.1451C19.0271 54.832 22.1253 55.1754 22.1253 54.1451Z" fill="#2F2E41"/>
  <path d="M28.666 28.3862C28.666 28.3862 33.4854 29.0731 33.1411 35.9422C33.1411 35.9422 39.3375 42.1243 37.6163 44.185C35.8951 46.2458 32.1084 50.0237 30.7315 48.9934C29.3545 47.963 25.2236 40.0636 25.2236 40.0636C25.2236 40.0636 15.5848 43.4981 13.8636 41.7809C12.1424 40.0636 10.4211 35.9422 10.4211 35.9422L19.0272 31.4773L28.666 28.3862Z" fill="#2F2E41"/>
  <path d="M15.2405 8.80926C17.522 8.80926 19.3714 6.96404 19.3714 4.68784C19.3714 2.41163 17.522 0.566406 15.2405 0.566406C12.9591 0.566406 11.1096 2.41163 11.1096 4.68784C11.1096 6.96404 12.9591 8.80926 15.2405 8.80926Z" fill="#9F616A"/>
  <path d="M18.3387 5.03125C18.3387 5.03125 20.7484 8.80923 21.4369 9.15268C22.1253 9.49613 16.6175 12.9307 16.6175 12.9307C16.6175 12.9307 16.6175 8.46577 14.8962 7.43542L18.3387 5.03125Z" fill="#9F616A"/>
  <path d="M18.6829 8.80834C18.6829 8.80834 24.1908 7.09108 25.2235 9.8387C26.2562 12.5863 28.6659 17.7381 28.3217 21.1726C27.9775 24.6071 27.289 23.9202 28.3217 24.9506C29.3544 25.981 30.0429 25.2941 29.6987 26.6679C29.3544 28.0417 29.0102 28.0417 29.3544 28.7286C29.6987 29.4155 25.2235 31.8196 21.4369 32.1631L17.6502 32.5065C17.6502 32.5065 17.6502 26.3244 16.9617 24.9506C16.2732 23.5768 14.8962 20.8292 14.8962 19.7988V17.0726C14.8962 15.258 15.3709 13.4749 16.2732 11.8994C16.2732 11.8994 18.3387 8.80834 18.6829 8.80834Z" fill="#88F63D"/>
  <path d="M22.8139 10.1831C22.8139 10.1831 35.5509 11.2135 36.9278 14.648C38.3048 18.0825 38.9933 24.9516 37.6163 24.9516C36.2393 24.9516 34.5181 25.6385 34.1739 24.9516C33.8296 24.2647 32.4527 17.3956 32.1084 17.3956C31.7642 17.3956 21.4369 16.3652 21.4369 16.3652C21.4369 16.3652 16.9618 10.87 22.8139 10.1831Z" fill="#88F63D"/>
  <path d="M15.0745 3.66575C15.0745 3.66575 13.9782 1.76509 12.608 3.41599C11.2377 5.06689 9.00859 2.03307 9.35079 1.38571C9.69299 0.73836 10.9014 1.41482 12.9724 0.739376C15.0434 0.0639328 19.0327 -1.31208 19.7008 3.17652C20.3689 7.66512 18.7777 7.19455 18.7777 7.19455C18.7777 7.19455 18.0483 3.21717 17.3891 4.35965L16.7299 5.50212L16.1581 5.64253L15.0745 3.66575Z" fill="#2F2E41"/>
</svg>